{"title":"The State Within 2006 Miniserie DVDrip 6Parts English Klam","uid":6475625,"size":4409543995,"categoryP":"video","categoryS":"movies","magnet":"?xt=urn:btih:03c592f9aea295a1d4b9facce1363830776fa9c5&amp;dn=The+State+Within+2006+Miniserie+DVDrip+6Parts+English+Klam&amp;tr=udp%3A%2F%2Ftracker.openbittorrent.com%3A80&amp;tr=udp%3A%2F%2Fopen.demonii.com%3A1337&amp;tr=udp%3A%2F%2Ftracker.coppersurfer.tk%3A6969&amp;tr=udp%3A%2F%2Fexodus.desync.com%3A6969","seeders":3,"leechers":1,"uploader":"Klambake","files":-1,"time":1308301728,"description":"With: Sharon Gless, Jason Isaacs en Eva Birthistle\n\nNa een enorme explosie staat de vriendschappelijke relatie tussen Engeland en Amerika zwaar onder druk. Britse huurlingen trekken een spoor van vernieling door de wereld. De Engelse ambassadeur in Amerika, Mark Brydon, raakt betrokken in deze zaken.\n\nAmbassador to Washington is the pinnacle of success in the Foreign Office and the position is offered to only the brightest and the best...\n\n------------------ Dutch Friends ------------------\n\nYou can find my Friends at: http://www.Film-Test.nl \n                    \n------ They got my dutchs subs ---- and more ------\n\nGeneral:\n\nComplete name                    : The State Within\\Part03.avi\nFormat                           : AVI\nFormat/Info                      : Audio Video Interleave\nFile size                        : 701 MiB\nDuration                         : 58mn 41s\nOverall bit rate                 : 1 670 Kbps\n\nVideo:\n\nFormat                           : MPEG-4 Visual\nFormat profile                   : Simple@L3\nFormat settings, BVOP            : No\nFormat settings, QPel            : No\nFormat settings, GMC             : No warppoints\nFormat settings, Matrix          : Default (H.263)\nCodec ID                         : XVID\nCodec ID/Hint                    : XviD\nDuration                         : 58mn 41s\nBit rate                         : 1 435 Kbps\nWidth                            : 704 pixels\nHeight                           : 396 pixels\nDisplay aspect ratio             : 16:9\nFrame rate                       : 25.000 fps\nColor space                      : YUV\nChroma subsampling               : 4:2:0\nBit depth                        : 8 bits\nScan type                        : Progressive\nBits/(Pixel*Frame)               : 0.206\nStream size                      : 602 MiB (86%)\nWriting library                  : XviD 1.1.2 (UTC 2006-11-01)\n:\n\nFormat                           : AC-3\nFormat/Info                      : Audio Coding 3\nMode extension                   : CM (complete main)\nCodec ID                         : 2000\nDuration                         : 58mn 41s\nBit rate mode                    : Constant\nBit rate                         : 224 Kbps\nChannel(s)                       : 2 channels\nChannel positions                : Front: L R\nSampling rate                    : 48.0 KHz\nBit depth                        : 16 bits\nStream size                      : 94.0 MiB (13%)\nAlignment                        : Aligned on interleaves\nInterleave, duration             : 32 ms (0.80 video frame)\nInterleave, preload duration     : 96 ms\n\n\n","torrent":{"xt":"urn:btih:03c592f9aea295a1d4b9facce1363830776fa9c5","amp;dn":"The+State+Within+2006+Miniserie+DVDrip+6Parts+English+Klam","amp;tr":["udp%3A%2F%2Ftracker.openbittorrent.com%3A80","udp%3A%2F%2Fopen.demonii.com%3A1337","udp%3A%2F%2Ftracker.coppersurfer.tk%3A6969","udp%3A%2F%2Fexodus.desync.com%3A6969"],"infoHash":"03c592f9aea295a1d4b9facce1363830776fa9c5","infoHashBuffer":{"type":"Buffer","data":[3,197,146,249,174,162,149,161,212,185,250,204,225,54,56,48,119,111,169,197]},"announce":[],"urlList":[]}}